<mxfile host="65bd71144e">
    <diagram id="24x8s1bCx6GwGggsvxJ0" name="Page-1">
        <mxGraphModel dx="748" dy="1171" grid="1" gridSize="10" guides="1" tooltips="1" connect="1" arrows="1" fold="1" page="1" pageScale="1" pageWidth="850" pageHeight="1100" math="0" shadow="0">
            <root>
                <mxCell id="0"/>
                <mxCell id="1" parent="0"/>
                <mxCell id="2" value="postgreSQL DB" style="shape=cylinder3;whiteSpace=wrap;html=1;boundedLbl=1;backgroundOutline=1;size=15;" vertex="1" parent="1">
                    <mxGeometry x="160" y="560" width="200" height="80" as="geometry"/>
                </mxCell>
                <mxCell id="3" value="mongoDB" style="shape=cylinder3;whiteSpace=wrap;html=1;boundedLbl=1;backgroundOutline=1;size=15;" vertex="1" parent="1">
                    <mxGeometry x="400" y="560" width="200" height="80" as="geometry"/>
                </mxCell>
                <mxCell id="4" value="Actor" style="shape=umlActor;verticalLabelPosition=bottom;verticalAlign=top;html=1;outlineConnect=0;" vertex="1" parent="1">
                    <mxGeometry x="375" y="70" width="30" height="60" as="geometry"/>
                </mxCell>
                <mxCell id="5" value="UI" style="rounded=0;whiteSpace=wrap;html=1;" vertex="1" parent="1">
                    <mxGeometry x="330" y="160" width="120" height="60" as="geometry"/>
                </mxCell>
                <mxCell id="6" value="api" style="rounded=0;whiteSpace=wrap;html=1;" vertex="1" parent="1">
                    <mxGeometry x="160" y="240" width="440" height="40" as="geometry"/>
                </mxCell>
                <mxCell id="7" value="blog" style="rounded=1;whiteSpace=wrap;html=1;" vertex="1" parent="1">
                    <mxGeometry x="160" y="320" width="120" height="40" as="geometry"/>
                </mxCell>
                <mxCell id="8" value="fin_trainer" style="rounded=1;whiteSpace=wrap;html=1;" vertex="1" parent="1">
                    <mxGeometry x="320" y="320" width="120" height="40" as="geometry"/>
                </mxCell>
                <mxCell id="9" value="news" style="rounded=1;whiteSpace=wrap;html=1;" vertex="1" parent="1">
                    <mxGeometry x="480" y="320" width="120" height="40" as="geometry"/>
                </mxCell>
            </root>
        </mxGraphModel>
    </diagram>
</mxfile>